<svg xmlns="http://www.w3.org/2000/svg" version="1.1" xmlns:xlink="http://www.w3.org/1999/xlink" xmlns:svgjs="http://svgjs.dev/svgjs" width="1440" height="560" preserveAspectRatio="none" viewBox="0 0 1440 560"><g mask="url(&quot;#SvgjsMask1017&quot;)" fill="none"><rect width="1440" height="560" x="0" y="0" fill="rgba(30, 27, 75, 1)"></rect><path d="M0,612.208C112.957,608.767,169.81,473.195,263.351,409.783C353.727,348.516,480.554,338.273,539.582,246.419C600.714,151.291,588.619,29.335,580.309,-83.436C571.483,-203.202,578.181,-343.038,490.126,-424.697C402.188,-506.247,257.103,-450.252,143.453,-488.556C22.7,-529.254,-71.738,-696.141,-192.23,-654.675C-314.694,-612.53,-278.272,-412.494,-362.773,-314.345C-446.822,-216.72,-653.544,-224.109,-672.608,-96.706C-691.63,30.412,-517.813,98.678,-439.87,200.882C-382.139,276.583,-343.406,361.124,-273.869,426.149C-191.591,503.087,-112.594,615.638,0,612.208" fill="#18163c"></path><path d="M1440 971.463C1518.469 955.1120000000001 1599.38 956.0360000000001 1669.078 916.452 1741.365 875.3969999999999 1800.671 815.766 1841.577 743.394 1885.034 666.509 1907.037 580.923 1908.636 492.62 1910.451 392.379 1920.52 276.137 1851.35 203.563 1782.215 131.026 1661.064 162.735 1565.497 132.598 1467.227 101.60899999999998 1383.614 3.480000000000018 1282.686 24.236999999999966 1181.714 45.00300000000004 1109.586 142.288 1065.438 235.44099999999997 1026.183 318.269 1070.844 414.366 1055.005 504.646 1038.403 599.277 955.4590000000001 679.4 970.913 774.225 987.544 876.271 1044.774 986.605 1140.083 1026.68 1235.726 1066.895 1338.4279999999999 992.6279999999999 1440 971.463" fill="#24205a"></path></g><defs><mask id="SvgjsMask1017"><rect width="1440" height="560" fill="#ffffff"></rect></mask></defs></svg>